<svg height="512pt" viewBox="0 0 512 512" width="512pt" xmlns="http://www.w3.org/2000/svg"><path d="m512 256c0 141.386719-114.613281 256-256 256s-256-114.613281-256-256 114.613281-256 256-256 256 114.613281 256 256zm0 0" fill="#ff5a99"/><path d="m272.488281 511.457031c133.699219-8.503906 239.511719-119.613281 239.511719-255.457031 0-10.28125-.625-20.414062-1.800781-30.378906l-98.832031-98.832032-110.496094 110.496094-122.355469-122.351562-33.015625.066406-4.5 83.5-32.480469 22.851562 104.144531 104.140626-63.070312 63.070312zm0 0" fill="#e53c79"/><path d="m154.871094 201.550781h-18.277344v-100.519531h9.136719c25.195312 0 45.691406 20.5 45.691406 45.691406v27.414063h-18.273437v-27.414063c0-11.914062-7.640626-22.078125-18.277344-25.851562zm0 0" fill="#a4f7f7"/><path d="m375.40625 385.535156h-18.277344v-100.519531h9.140625c25.191407 0 45.691407 20.496094 45.691407 45.6875v27.417969h-18.277344v-27.417969c0-11.914063-7.640625-22.074219-18.277344-25.851563zm0 0" fill="#76e2f8"/><path d="m127.457031 228.964844c-15.117187 0-27.417969-12.296875-27.417969-27.414063 0-15.117187 12.300782-27.414062 27.417969-27.414062 15.117188 0 27.414063 12.296875 27.414063 27.414062 0 15.117188-12.296875 27.414063-27.414063 27.414063zm0 0" fill="#a4f7f7"/><path d="m347.992188 412.949219c-15.117188 0-27.417969-12.296875-27.417969-27.414063 0-15.121094 12.296875-27.417968 27.417969-27.417968 15.117187 0 27.414062 12.296874 27.414062 27.417968 0 15.117188-12.296875 27.414063-27.414062 27.414063zm0 0" fill="#76e2f8"/><path d="m295.152344 139.769531 12.921875-12.921875 64.617187 64.617188-12.921875 12.921875zm0 0" fill="#663325"/><path d="m321 113.925781 12.921875-12.921875 64.617187 64.613282-12.921874 12.925781zm0 0" fill="#663325"/><path d="m359.769531 152.695312 12.921875-12.921874 25.847656 25.847656-12.921874 12.921875zm0 0" fill="#3c1b13"/><path d="m359.773438 204.390625-25.847657-25.847656 12.925781-12.921875 25.84375 25.847656zm0 0" fill="#3c1b13"/><path d="m264.832031 349.210938c-.773437-9.046876-2.714843-12.277344 18.738281-22.875 6.71875-3.359376 14.214844-7.238282 21.710938-14.730469 16.800781-16.800781 17.445312-58.800781-14.085938-90.335938-25.070312-25.070312-66.941406-36.445312-90.464843-12.921875-4.910157 4.910156-5.945313 7.753906-13.050781 22.097656-10.855469 21.453126-13.828126 19.257813-23.003907 18.351563-10.984375-1.164063-27.527343-2.714844-45.75 15.507813-34.632812 34.632812-17.316406 77.539062 17.1875 112.046874.128907.128907.128907.128907.261719.257813 34.632812 34.632813 77.539062 52.207031 112.304688 17.445313 18.089843-18.089844 16.929687-34.246094 16.152343-44.84375zm0 0" fill="#eebf00"/><path d="m248.679688 394.054688c-34.765626 34.765624-77.671876 17.1875-112.304688-17.445313-.128906-.128906-.128906-.128906-.261719-.257813l155.082031-155.082031c31.535157 31.535157 30.886719 73.535157 14.085938 90.335938-7.496094 7.492187-14.988281 11.371093-21.710938 14.730469-21.453124 10.597656-19.511718 13.828124-18.738281 22.875.777344 10.597656 1.9375 26.753906-16.152343 44.84375zm0 0" fill="#dc9e00"/><path d="m346.847656 191.464844-107.34375 107.347656-25.847656-25.847656 107.347656-107.347656h25.84375zm0 0" fill="#b35f49"/><path d="m346.847656 191.464844-107.34375 107.347656-12.925781-12.925781 120.269531-120.269531zm0 0" fill="#99503d"/><path d="m233.039062 279.425781c-14.214843-14.214843-37.476562-14.214843-51.691406 0-14.214844 14.214844-14.214844 37.476563 0 51.695313 14.214844 14.214844 37.476563 14.214844 51.691406 0 14.21875-14.21875 14.21875-37.480469 0-51.695313zm0 0" fill="#663325"/><path d="m233.039062 331.117188c-14.214843 14.21875-37.476562 14.21875-51.691406 0l51.691406-51.691407c14.21875 14.214844 14.21875 37.476563 0 51.691407zm0 0" fill="#3c1b13"/><path d="m411.464844 126.847656-64.617188 64.617188-25.84375-25.847656 38.769532-64.617188 34.503906 17.1875zm0 0" fill="#eebf00"/><path d="m346.847656 191.464844-12.921875-12.925782 60.351563-60.351562 17.1875 8.660156zm0 0" fill="#dc9e00"/></svg>