<svg height="512pt" viewBox="0 0 512 512.001" width="512pt" xmlns="http://www.w3.org/2000/svg"><path d="m512 256c0 141.386719-114.613281 256-256 256-141.382812 0-256-114.613281-256-256s114.617188-256 256-256c141.386719 0 256 114.613281 256 256zm0 0" fill="#805142"/><path d="m512 256c0-7.683594-.359375-15.285156-1.023438-22.796875l-116.089843-116.089844-23.253907 43.011719-91.464843-91.464844-109.976563 81.886719-96.757812 134.1875 82.289062 82.289063-33.886718 31.847656 112.179687 112.179687c7.246094.617188 14.578125.949219 21.984375.949219 141.386719 0 256-114.613281 256-256zm0 0" fill="#5e382c"/><path d="m292.75 96.332031c0 20.296875-16.453125 36.753907-36.75 36.753907s-36.75-16.457032-36.75-36.753907 16.453125-36.75 36.75-36.75 36.75 16.453125 36.75 36.75zm0 0" fill="#fff"/><path d="m256 59.582031c-.03125 0-.0625.003907-.09375.003907v73.496093c.03125 0 .0625.003907.09375.003907 20.296875 0 36.75-16.457032 36.75-36.753907s-16.453125-36.75-36.75-36.75zm0 0" fill="#f0f0f0"/><path d="m292.75 415.667969c0 20.296875-16.453125 36.75-36.75 36.75s-36.75-16.453125-36.75-36.75 16.453125-36.753907 36.75-36.753907 36.75 16.457032 36.75 36.753907zm0 0" fill="#fff"/><path d="m256 378.914062c-.03125 0-.0625.003907-.09375.003907v73.496093h.09375c20.296875 0 36.75-16.453124 36.75-36.75 0-20.296874-16.453125-36.75-36.75-36.75zm0 0" fill="#f0f0f0"/><path d="m452.417969 256c0 20.296875-16.453125 36.75-36.75 36.75s-36.75-16.453125-36.75-36.75 16.453125-36.75 36.75-36.75 36.75 16.453125 36.75 36.75zm0 0" fill="#f0f0f0"/><path d="m133.085938 256c0 20.296875-16.457032 36.75-36.753907 36.75s-36.75-16.453125-36.75-36.75 16.453125-36.75 36.75-36.75 36.753907 16.453125 36.753907 36.75zm0 0" fill="#fff"/><path d="m394.886719 117.113281c-14.355469-14.351562-37.621094-14.351562-51.976563 0-14.351562 14.351563-14.351562 37.621094 0 51.972657 14.355469 14.351562 37.621094 14.351562 51.976563 0 14.351562-14.351563 14.351562-37.621094 0-51.972657zm0 0" fill="#f0f0f0"/><path d="m169.082031 342.914062c-14.351562-14.351562-37.621093-14.351562-51.972656 0-14.351563 14.351563-14.351563 37.621094 0 51.972657 14.351563 14.351562 37.621094 14.351562 51.972656 0 14.351563-14.351563 14.351563-37.621094 0-51.972657zm0 0" fill="#fff"/><path d="m169.085938 117.113281c-14.355469-14.351562-37.621094-14.351562-51.976563 0-14.351563 14.351563-14.351563 37.621094 0 51.972657 14.355469 14.351562 37.621094 14.351562 51.976563 0 14.351562-14.351563 14.351562-37.621094 0-51.972657zm0 0" fill="#fff"/><path d="m394.882812 342.914062c-14.351562-14.351562-37.621093-14.351562-51.972656 0-14.351562 14.351563-14.351562 37.621094 0 51.972657 14.351563 14.351562 37.621094 14.351562 51.972656 0 14.351563-14.351563 14.351563-37.621094 0-51.972657zm0 0" fill="#f0f0f0"/><path d="m256 409.074219c-84.40625 0-153.074219-68.667969-153.074219-153.074219s68.667969-153.074219 153.074219-153.074219 153.074219 68.667969 153.074219 153.074219-68.667969 153.074219-153.074219 153.074219zm0-274.148438c-66.761719 0-121.074219 54.3125-121.074219 121.074219s54.3125 121.074219 121.074219 121.074219 121.074219-54.3125 121.074219-121.074219-54.3125-121.074219-121.074219-121.074219zm0 0" fill="#ffe733"/><path d="m255.660156 102.925781c-.03125 0-.0625 0-.09375 0v32h.09375c66.761719 0 121.074219 54.3125 121.074219 121.074219s-54.3125 121.074219-121.074219 121.074219c-.03125 0-.0625 0-.09375 0v32h.09375c84.40625 0 153.074219-68.667969 153.074219-153.074219s-68.667969-153.074219-153.074219-153.074219zm0 0" fill="#f7c908"/></svg>